<?xml version="1.0" standalone="no"?>
<!DOCTYPE svg PUBLIC "-//W3C//DTD SVG 20010904//EN"
 "http://www.w3.org/TR/2001/REC-SVG-20010904/DTD/svg10.dtd">
<svg version="1.0" xmlns="http://www.w3.org/2000/svg"
 width="300.000000pt" height="357.000000pt" viewBox="0 0 300.000000 357.000000"
 preserveAspectRatio="xMidYMid meet">
<metadata>
Created by potrace 1.10, written by Peter Selinger 2001-2011
</metadata>
<g transform="translate(0.000000,357.000000) scale(0.100000,-0.100000)"
fill="#000000" stroke="none">
<path d="M1486 3470 c-17 -22 -33 -40 -38 -40 -4 0 -8 -7 -8 -15 0 -8 5 -15
10 -15 6 0 10 -4 10 -10 0 -5 -7 -10 -15 -10 -21 0 -95 -38 -95 -49 0 -5 7
-14 15 -21 23 -19 3 -35 -25 -20 -25 13 -40 1 -40 -32 0 -22 -12 -23 -50 -3
l-30 16 0 -34 c0 -44 -7 -49 -41 -32 -38 20 -39 20 -39 -20 0 -38 -5 -40 -44
-25 -26 9 -26 9 -20 -30 4 -22 5 -40 3 -40 -2 0 -19 4 -38 10 -30 8 -33 8 -27
-10 21 -68 22 -63 -17 -56 -41 8 -45 2 -21 -33 14 -19 14 -25 3 -32 -8 -5 -25
-9 -38 -9 l-24 0 22 -24 c28 -29 20 -46 -20 -46 -37 0 -37 -10 1 -35 16 -11
30 -23 30 -26 0 -4 -16 -10 -35 -13 -44 -9 -44 -18 -3 -38 l33 -15 -39 -20
-40 -20 39 -13 39 -13 -27 -23 c-15 -13 -27 -25 -27 -28 0 -3 16 -8 36 -12
l35 -6 -27 -29 -28 -29 32 0 c41 0 50 -17 13 -25 -36 -8 -99 -52 -185 -132
l-67 -61 29 -7 c51 -11 89 -67 112 -165 16 -71 37 -107 78 -132 17 -11 32 -27
32 -35 0 -15 -47 -65 -129 -138 -34 -30 -81 -115 -81 -147 0 -26 -36 -58 -65
-58 -18 0 -34 12 -56 43 -53 73 -60 91 -47 128 10 29 9 34 -10 47 -18 12 -20
20 -15 65 4 36 0 64 -11 91 -9 21 -16 47 -16 57 0 11 -7 19 -16 19 -9 0 -14 4
-12 8 2 4 12 31 22 60 18 46 23 52 48 52 23 0 28 4 28 25 0 14 12 49 26 77 31
61 35 138 10 186 -13 25 -14 37 -6 52 9 17 5 27 -20 58 -17 21 -28 45 -25 53
3 8 -1 23 -9 34 -14 19 -15 19 -35 1 -12 -11 -21 -25 -21 -33 0 -7 -6 -13 -13
-13 -19 0 -46 -32 -50 -58 -4 -30 -72 -65 -98 -52 -24 14 -69 12 -69 -1 0 -7
8 -18 18 -25 12 -9 17 -27 18 -66 0 -36 9 -69 27 -105 15 -29 27 -59 27 -68 0
-8 9 -15 19 -15 10 0 22 -7 25 -16 10 -26 -2 -29 -25 -8 -20 18 -21 18 -57 -1
-28 -15 -38 -27 -40 -50 -5 -38 -16 -52 -61 -71 -66 -29 -66 -29 -66 -79 0
-43 -4 -52 -52 -104 -29 -31 -53 -59 -53 -63 0 -11 61 -28 100 -28 34 0 40 -4
58 -39 18 -34 19 -40 6 -45 -19 -7 -15 -56 6 -67 8 -5 27 -13 41 -18 22 -8 34
-30 74 -128 57 -143 92 -206 150 -271 33 -36 46 -61 51 -93 7 -46 36 -113 54
-124 5 -3 10 -16 10 -28 0 -56 77 -106 163 -107 93 0 157 49 157 121 0 21 5
41 10 44 16 10 11 -55 -9 -113 -10 -29 -20 -54 -22 -56 -2 -2 -82 -12 -177
-21 -338 -31 -387 -53 -426 -187 l-12 -40 -31 26 c-72 60 -82 145 -28 222 48
67 46 94 -10 148 -32 31 -45 53 -46 73 0 27 -1 27 -11 6 -14 -29 -5 -62 32
-108 16 -21 30 -44 30 -53 0 -8 -16 -37 -37 -64 -50 -69 -56 -127 -19 -203 27
-53 59 -84 119 -115 21 -11 34 -27 42 -56 21 -73 56 -122 116 -164 113 -79
263 -133 410 -146 65 -6 67 -8 73 -37 7 -37 57 -84 122 -116 27 -13 61 -30 76
-38 44 -22 75 -16 119 25 25 22 50 36 61 34 32 -6 73 17 93 50 15 26 19 57 21
164 l3 133 -42 44 c-34 36 -52 46 -100 56 -33 7 -68 22 -78 32 -13 13 -27 17
-44 13 -19 -5 -25 -2 -25 9 0 9 -12 30 -26 47 -15 17 -25 32 -23 34 2 2 47 -7
99 -19 52 -13 112 -26 133 -30 23 -4 37 -11 37 -21 0 -23 -28 -28 -92 -18 -32
6 -58 7 -58 4 0 -10 44 -28 87 -36 21 -4 45 -10 54 -15 13 -7 20 -2 29 22 7
16 28 42 47 58 l34 28 -78 7 c-193 17 -339 74 -402 158 -20 26 -39 47 -43 47
-19 2 21 -69 64 -112 45 -45 48 -51 34 -66 -9 -10 -16 -22 -16 -27 0 -5 -10
-22 -21 -39 l-21 -30 6 28 c10 42 -21 96 -71 126 -27 17 -42 33 -43 47 0 11
-9 30 -20 42 -11 12 -20 23 -20 25 0 3 20 8 45 12 51 7 70 28 80 85 3 19 11
49 17 67 9 25 9 38 -1 56 -11 20 -11 31 0 61 7 20 22 44 33 54 18 17 19 16 11
-23 -14 -78 -6 -166 21 -222 31 -64 81 -106 199 -167 95 -48 90 -57 -15 -32
-81 19 -149 52 -202 97 -49 41 -58 46 -58 29 0 -24 77 -92 134 -119 239 -113
721 -94 908 35 40 28 84 81 75 90 -3 3 -29 -12 -59 -34 -70 -52 -101 -67 -189
-92 -120 -33 -135 -25 -41 20 154 74 223 147 240 252 14 93 -23 214 -85 276
-17 18 -17 32 1 32 25 0 102 -168 116 -251 16 -100 36 -168 57 -191 9 -10 34
-21 55 -24 21 -4 38 -9 38 -11 0 -11 -82 -82 -101 -88 -29 -10 -35 1 -20 38
27 68 22 70 -32 11 -82 -89 -195 -135 -392 -160 -33 -4 -51 -9 -40 -12 11 -2
28 -11 38 -20 17 -15 23 -15 78 -1 73 19 79 6 7 -16 -65 -19 -63 -19 -97 6
-16 12 -34 19 -39 15 -6 -3 -13 -2 -17 4 -3 5 -27 10 -53 10 -58 0 -102 -25
-137 -78 l-26 -40 27 -28 c39 -42 47 -71 39 -146 -7 -73 10 -122 55 -163 19
-18 24 -18 47 -5 34 19 98 132 127 223 5 15 11 13 50 -17 25 -19 59 -37 76
-41 16 -4 30 -10 30 -15 0 -4 22 -13 50 -20 27 -7 61 -20 74 -31 13 -10 48
-24 78 -31 60 -13 79 -24 56 -33 -9 -4 -35 3 -58 15 -23 12 -44 19 -47 16 -3
-3 15 -15 41 -28 25 -12 46 -26 46 -30 0 -16 -36 -7 -89 22 -30 17 -56 30 -59
30 -13 0 27 -34 66 -57 37 -22 41 -28 27 -35 -18 -11 -45 4 -106 59 -25 23
-39 30 -39 21 0 -17 34 -56 69 -79 47 -30 -6 -53 -64 -27 -14 6 -37 31 -51 56
-22 37 -28 42 -36 28 -13 -23 -62 -20 -94 7 -17 15 -29 38 -33 63 l-7 39 -23
-47 -23 -48 21 -29 c21 -29 50 -42 119 -56 18 -4 53 -24 78 -46 33 -29 54 -39
79 -39 51 0 185 77 185 107 0 7 4 13 9 13 5 0 11 10 13 22 3 20 12 24 93 35
162 22 301 79 410 166 37 29 78 100 89 153 5 24 16 36 47 49 68 31 123 107
130 180 4 51 -4 77 -41 133 -22 33 -40 64 -40 70 0 5 16 29 35 52 25 30 35 52
35 76 0 19 -4 34 -10 34 -5 0 -10 -10 -10 -21 0 -12 -20 -44 -45 -70 -52 -56
-56 -84 -20 -127 43 -51 57 -97 45 -143 -11 -38 -72 -119 -91 -119 -5 0 -9 10
-9 22 0 43 -42 109 -87 138 -52 33 -114 46 -337 68 l-168 17 -18 58 c-10 32
-21 82 -25 110 -10 80 -33 145 -83 232 -25 44 -47 81 -48 83 -1 2 -14 -4 -28
-13 -32 -21 -90 -35 -117 -28 -16 4 -18 8 -7 14 7 5 23 9 36 9 35 0 97 36 126
72 15 18 38 71 53 118 18 56 28 77 31 62 6 -39 -18 -130 -47 -173 l-29 -42 27
-46 c15 -25 30 -55 34 -65 7 -18 9 -18 35 7 32 30 42 33 42 13 0 -8 -12 -23
-27 -34 -19 -14 -24 -24 -19 -37 6 -16 10 -15 39 13 36 35 47 39 47 18 0 -8
-16 -27 -36 -43 -30 -24 -35 -33 -29 -56 9 -35 18 -34 33 5 6 17 14 29 17 26
7 -7 -13 -61 -25 -68 -16 -10 4 -137 26 -161 53 -60 164 -75 249 -35 93 44
115 85 115 214 0 86 1 88 39 139 50 66 73 116 119 249 33 97 40 109 65 115 55
15 74 51 43 82 -13 13 -13 17 -1 33 8 11 15 27 15 37 0 13 9 17 44 17 44 0
106 17 106 28 0 4 -24 33 -54 65 -42 45 -52 62 -48 82 7 39 -6 73 -31 80 -50
14 -88 41 -93 65 -3 14 -8 32 -10 41 -2 8 -20 23 -40 33 -33 15 -39 15 -60 1
-29 -19 -35 -19 -27 1 3 8 16 20 29 25 14 5 24 17 24 28 0 11 12 42 26 68 20
37 25 58 21 92 -4 34 -1 47 14 62 11 11 17 24 14 29 -8 13 -41 13 -64 0 -26
-13 -91 18 -91 45 0 11 -25 44 -56 74 -58 58 -74 58 -74 1 0 -14 -12 -38 -26
-53 -21 -22 -25 -35 -20 -58 3 -19 0 -42 -9 -59 -22 -42 -18 -117 7 -170 12
-25 25 -58 28 -75 4 -23 11 -31 31 -33 24 -3 37 -21 77 -114 2 -5 -2 -8 -10
-8 -17 0 -41 -88 -44 -163 -1 -43 -7 -62 -20 -71 -16 -12 -17 -18 -5 -53 16
-48 1 -84 -51 -128 l-33 -28 -3 23 c-2 13 -14 26 -30 32 -19 7 -34 27 -51 64
-17 39 -43 71 -92 115 -89 78 -94 99 -42 144 43 36 50 50 82 160 21 75 53 115
103 131 27 9 27 9 -58 84 -80 70 -135 108 -187 126 -19 6 -16 8 16 11 l37 4
-20 29 c-27 38 -26 40 18 40 l37 1 -34 29 c-31 26 -32 30 -15 35 61 20 61 21
21 41 l-38 20 38 19 38 18 -37 11 c-51 15 -54 21 -19 42 37 22 40 34 9 34 -13
0 -29 4 -37 9 -11 7 -8 14 15 35 l29 25 -36 1 c-48 0 -52 7 -27 48 l21 34 -41
-7 c-23 -4 -42 -5 -42 -2 0 2 7 21 15 42 18 41 23 39 -46 19 -19 -5 -21 -3
-15 19 3 14 9 32 12 41 5 14 2 15 -21 6 -48 -18 -57 -14 -49 27 6 33 5 35 -12
28 -10 -4 -29 -10 -41 -12 -20 -5 -23 -1 -23 24 0 39 -8 45 -34 28 -30 -22
-43 -18 -55 15 -9 28 -12 29 -36 18 -32 -14 -43 -4 -21 21 17 19 16 20 -21 45
-21 14 -46 26 -55 26 -20 0 -24 16 -7 22 11 4 -53 99 -70 105 -3 1 -19 -15
-35 -37z m74 -43 c0 -2 -18 -3 -40 -2 -22 0 -40 2 -40 3 0 2 10 17 21 34 l21
29 19 -31 c11 -17 19 -32 19 -33z m56 -80 c27 -14 21 -15 -98 -14 -70 1 -124
5 -120 9 30 29 166 32 218 5z m58 -96 c65 -36 48 -41 -160 -41 l-199 0 27 27
c33 33 85 41 213 35 58 -3 100 -10 119 -21z m171 -92 c66 -44 134 -120 166
-184 58 -119 74 -286 35 -380 -25 -58 -30 -35 -11 44 25 100 10 217 -40 318
-39 80 -138 181 -219 224 -25 13 -46 30 -46 37 0 14 30 -2 115 -59z m-535 57
c0 -2 -38 -29 -84 -60 -129 -86 -187 -163 -221 -293 -19 -74 -19 -198 0 -253
18 -51 18 -50 5 -50 -14 0 -28 39 -40 114 -23 145 42 332 148 426 78 70 192
138 192 116z m-20 -55 c-30 -25 -35 -34 -34 -70 1 -22 -2 -41 -7 -41 -5 0 -9
7 -9 15 0 8 -7 15 -15 15 -8 0 -15 7 -15 15 0 8 6 15 14 15 8 0 17 9 21 20 7
21 51 60 68 60 6 0 -4 -13 -23 -29z m474 8 c14 -11 26 -27 26 -35 0 -8 7 -17
15 -20 20 -8 19 -21 -5 -46 l-20 -22 0 43 c0 35 -6 48 -31 72 -36 33 -25 39
15 8z m-22 -37 c11 -11 5 -12 -32 -5 -59 10 -332 10 -390 0 -29 -5 -41 -5 -35
2 18 17 56 19 252 18 142 -2 195 -5 205 -15z m-66 -23 c34 -6 71 -17 81 -25
16 -14 15 -15 -17 -10 -82 13 -320 18 -390 8 -80 -12 -94 -10 -60 8 54 29 268
40 386 19z m-476 -55 c0 -17 -26 -19 -36 -3 -7 12 15 31 28 23 4 -3 8 -12 8
-20z m670 0 c0 -17 -26 -19 -36 -3 -7 12 15 31 28 23 4 -3 8 -12 8 -20z m-430
-9 c0 -8 -44 -23 -53 -18 -14 8 4 23 29 23 13 0 24 -2 24 -5z m205 -6 c10 -15
-1 -22 -24 -14 -12 3 -19 11 -16 16 8 12 32 11 40 -2z m-385 -20 c-93 -75
-131 -129 -150 -212 -9 -43 -7 -65 16 -159 10 -45 -11 -32 -27 15 -41 123 7
268 115 348 46 34 86 41 46 8z m330 -15 c93 -54 120 -115 84 -185 -19 -37 -29
-33 -14 6 16 41 -4 98 -45 132 -19 15 -47 38 -64 50 l-29 23 -61 -41 c-34 -23
-68 -54 -76 -70 -17 -33 -19 -82 -5 -110 8 -13 7 -19 0 -19 -6 0 -18 16 -26
35 -18 45 -6 101 31 135 29 27 115 79 132 79 7 1 39 -15 73 -35z m264 -26 c72
-72 96 -128 96 -220 0 -60 -27 -145 -41 -131 -5 5 -2 26 6 48 19 53 19 121 -1
179 -17 50 -101 151 -135 161 -23 8 -25 25 -3 25 9 0 44 -28 78 -62z m-694 37
c0 -8 -9 -15 -20 -15 -11 0 -20 7 -20 15 0 8 9 15 20 15 11 0 20 -7 20 -15z
m198 -32 c-50 -54 -61 -104 -33 -153 20 -36 18 -41 -12 -34 -76 18 -111 63
-99 127 10 55 56 83 140 86 l30 1 -26 -27z m387 17 c54 -12 75 -41 75 -100 0
-58 -27 -86 -102 -104 l-27 -6 14 35 c27 62 18 112 -28 163 l-20 22 24 0 c13
0 42 -5 64 -10z m-629 -21 c10 -17 -13 -36 -27 -22 -12 12 -4 33 11 33 5 0 12
-5 16 -11z m830 0 c10 -17 -13 -36 -27 -22 -12 12 -4 33 11 33 5 0 12 -5 16
-11z m-856 -65 c0 -14 -21 -19 -33 -7 -9 9 13 34 24 27 5 -3 9 -12 9 -20z
m890 5 c0 -12 -29 -24 -37 -16 -3 4 -3 13 0 21 6 16 37 11 37 -5z m-413 -21
c43 -40 21 -109 -39 -124 -22 -5 -34 0 -59 25 -25 25 -30 37 -25 59 14 59 80
81 123 40z m426 -25 c9 -9 -13 -34 -24 -27 -14 8 -11 34 4 34 8 0 17 -3 20 -7z
m-567 -14 c10 -17 -13 -36 -27 -22 -12 12 -4 33 11 33 5 0 12 -5 16 -11z
m-227 -34 c13 -19 27 -35 32 -35 20 0 7 -18 -32 -43 -46 -30 -59 -28 -59 11 0
34 19 102 28 102 4 0 18 -16 31 -35z m686 16 c11 -35 13 -96 4 -113 -8 -16
-14 -14 -53 14 l-45 31 37 43 c41 49 48 52 57 25z m-829 -82 c10 -17 -13 -36
-27 -22 -12 12 -4 33 11 33 5 0 12 -5 16 -11z m950 0 c10 -17 -13 -36 -27 -22
-12 12 -4 33 11 33 5 0 12 -5 16 -11z m-602 -8 c3 -4 -26 -11 -64 -14 -73 -6
-108 -20 -159 -63 -38 -32 -41 -17 -3 18 30 28 62 47 101 59 36 10 119 11 125
0z m133 -7 c3 -8 1 -20 -5 -26 -15 -15 -43 8 -35 28 7 19 32 18 40 -2z m221 1
c49 -15 129 -71 117 -83 -3 -3 -15 4 -28 16 -33 31 -91 52 -163 59 -41 4 -60
9 -52 14 20 13 69 11 126 -6z m-158 -39 c0 -8 -4 -17 -8 -20 -13 -8 -35 11
-28 23 10 16 36 14 36 -3z m126 3 c10 -17 -13 -36 -27 -22 -12 12 -4 33 11 33
5 0 12 -5 16 -11z m-480 -30 c10 -17 -13 -36 -27 -22 -12 12 -4 33 11 33 5 0
12 -5 16 -11z m269 -10 c17 0 68 2 115 3 73 3 92 0 133 -21 57 -28 117 -82
117 -105 0 -12 -9 -7 -30 17 -16 19 -58 47 -92 62 -62 28 -67 29 -243 29 -177
1 -181 0 -237 -27 -32 -16 -72 -42 -88 -59 -17 -17 -33 -28 -36 -25 -10 10 19
44 66 76 74 51 115 62 195 55 39 -3 84 -6 100 -5z m-950 -15 c22 -23 16 -25
-34 -12 -29 7 -38 13 -29 19 20 13 45 11 63 -7z m1930 6 c3 -5 -7 -12 -22 -16
-15 -3 -34 -7 -40 -10 -16 -4 -17 8 -1 24 14 14 54 16 63 2z m-501 -31 c-8
-14 -34 -11 -34 4 0 8 3 17 7 20 9 9 34 -13 27 -24z m-798 10 c10 -17 -13 -36
-27 -22 -12 12 -4 33 11 33 5 0 12 -5 16 -11z m672 -6 c-5 -25 -28 -28 -28 -4
0 12 6 21 16 21 9 0 14 -7 12 -17z m-355 -15 c26 1 75 2 110 4 88 4 130 -21
138 -83 3 -24 9 -55 13 -69 6 -22 4 -26 -19 -28 -69 -5 -105 -58 -105 -152 0
-36 3 -76 7 -89 6 -23 6 -22 19 8 9 20 26 37 48 46 20 8 42 28 50 44 27 52 43
46 48 -17 6 -69 -6 -126 -36 -172 -21 -32 -22 -38 -10 -74 12 -35 12 -41 -6
-63 -11 -14 -20 -32 -20 -39 0 -7 -4 -15 -8 -18 -4 -2 -8 28 -7 67 0 58 -5 80
-24 115 -32 55 -42 53 -25 -5 19 -63 18 -130 -6 -264 -26 -148 -25 -155 9
-190 24 -23 38 -29 74 -29 79 0 127 61 127 160 0 41 15 60 46 60 12 0 28 7 35
16 11 14 10 18 -6 30 -10 8 -22 14 -25 14 -4 0 -7 14 -6 31 1 30 2 30 37 25
104 -17 196 -66 237 -126 13 -19 30 -60 39 -92 15 -53 18 -57 42 -52 15 3 34
-1 46 -10 19 -14 17 -15 -27 -16 -28 0 -48 5 -51 13 -6 13 -46 -29 -47 -48 0
-5 -18 -20 -38 -33 -43 -26 -62 -63 -71 -137 -12 -96 -26 -47 -31 107 -5 148
-4 154 18 190 30 47 26 66 -23 100 -50 34 -63 35 -75 3 -7 -17 -17 -25 -35
-25 -41 0 -55 -34 -47 -115 l8 -70 17 32 c9 18 17 46 17 63 0 23 7 35 33 50
34 21 87 27 87 10 0 -6 -13 -13 -30 -16 -21 -5 -30 -12 -30 -25 0 -22 20 -25
40 -6 7 6 2 -4 -12 -23 -13 -19 -37 -61 -53 -92 -33 -69 -111 -149 -174 -180
-37 -18 -63 -23 -131 -23 -112 0 -150 19 -207 104 -92 135 -163 462 -123 567
17 44 3 39 -20 -7 -12 -23 -25 -69 -28 -101 l-5 -59 -18 31 c-20 33 -24 76
-10 99 7 10 2 23 -14 43 -39 47 -53 116 -39 200 7 42 26 41 47 -2 7 -13 30
-33 52 -44 26 -14 41 -29 43 -44 6 -41 19 -22 26 38 12 107 -24 182 -96 195
l-35 7 13 36 c7 21 13 48 14 62 1 34 10 47 50 65 25 11 50 13 85 9 28 -3 71
-6 98 -6z m-946 -14 c29 -4 50 -11 47 -15 -12 -20 -135 -1 -150 23 -5 7 2 9
22 4 16 -3 53 -9 81 -12z m1968 6 c-14 -23 -155 -42 -155 -20 0 6 17 11 38 11
20 1 51 5 67 9 44 11 57 11 50 0z m-1445 -25 c0 -8 -9 -15 -20 -15 -11 0 -20
7 -20 15 0 8 9 15 20 15 11 0 20 -7 20 -15z m-505 -45 c37 -35 30 -43 -11 -15
-48 33 -129 35 -168 4 -22 -17 -26 -18 -26 -4 0 47 158 59 205 15z m1990 16
c19 -8 35 -22 35 -30 0 -13 -5 -13 -32 4 -47 29 -116 27 -162 -5 -34 -23 -36
-23 -26 -4 24 44 119 62 185 35z m-2227 -21 c15 -19 19 -35 15 -63 -3 -23 1
-53 11 -76 26 -62 18 -76 -9 -18 -14 31 -25 72 -25 96 0 23 -7 52 -16 64 -21
30 0 28 24 -3z m2324 2 c-16 -17 -22 -36 -22 -68 0 -43 -44 -158 -56 -146 -3
3 2 20 12 38 9 19 19 64 22 102 4 54 9 71 26 82 32 23 42 18 18 -8z m-1436 -4
c-2 -10 -8 -37 -11 -60 -4 -24 -11 -43 -16 -43 -4 0 -17 19 -27 43 l-19 42 26
17 c34 23 54 23 47 1z m604 2 c35 -18 35 -21 14 -63 -17 -34 -44 -43 -44 -14
0 9 -3 34 -6 55 -7 42 -5 43 36 22z m-1295 -9 c18 -8 38 -23 44 -34 19 -36 13
-88 -14 -120 -14 -17 -32 -45 -40 -64 -14 -31 -14 -32 -15 -7 0 14 13 46 30
70 49 72 38 131 -29 149 -81 21 -126 -24 -119 -118 l5 -57 -15 35 c-20 49 -9
99 28 133 34 31 72 35 125 13z m2011 -5 c42 -26 59 -75 44 -130 -6 -23 -12
-41 -14 -41 -1 0 -1 24 1 53 7 87 -35 132 -109 117 -73 -14 -88 -75 -38 -149
17 -24 30 -53 30 -65 0 -18 -2 -17 -15 7 -8 16 -26 42 -40 59 -44 53 -31 128
28 153 44 20 77 18 113 -4z m-1447 -18 c46 -34 61 -79 60 -173 l-2 -85 -43 -1
-43 -1 20 28 c12 17 25 26 34 22 21 -8 20 88 -1 133 -44 92 -187 81 -318 -25
-42 -34 -61 -34 -30 0 35 39 117 93 168 111 60 21 118 18 155 -9z m1015 -8
c54 -28 154 -110 145 -119 -3 -3 -27 11 -55 30 -161 117 -292 113 -323 -12 -6
-25 -9 -62 -5 -82 5 -29 4 -34 -6 -26 -19 19 -15 138 7 176 41 72 135 85 237
33z m-1578 -9 c12 -19 13 -29 5 -43 -10 -17 -10 -17 -11 0 0 21 -35 57 -55 57
-8 0 -25 -10 -36 -21 -19 -19 -21 -29 -16 -98 6 -72 5 -74 -8 -41 -36 92 -6
170 65 170 31 0 43 -5 56 -24z m2013 -2 c24 -31 26 -81 6 -134 -13 -33 -14
-32 -8 36 5 64 3 74 -16 93 -11 11 -28 21 -36 21 -20 0 -55 -36 -55 -57 0 -15
-2 -16 -10 -3 -14 21 -13 27 10 50 30 30 83 27 109 -6z m-2048 -51 c14 -37 2
-144 -24 -213 -27 -72 -33 -51 -7 25 20 59 25 133 11 170 -5 13 -10 -7 -14
-59 -7 -85 -25 -156 -39 -156 -11 0 -10 10 7 77 8 31 15 83 15 113 0 31 3 60
7 63 14 15 34 6 44 -20z m2020 -53 c3 -41 12 -97 19 -123 7 -26 10 -50 7 -53
-12 -12 -29 42 -39 127 -9 67 -14 86 -21 73 -14 -25 -2 -125 22 -179 12 -27
19 -50 16 -53 -9 -9 -46 88 -55 146 -9 51 -5 113 7 135 3 4 12 7 21 5 13 -3
18 -19 23 -78z m-1451 41 c25 -16 25 -16 -30 -21 -62 -6 -84 -16 -119 -54 -30
-32 -26 -32 41 -1 54 25 132 33 143 15 4 -6 -5 -10 -20 -10 -40 0 -88 -24
-118 -59 -35 -42 -35 -62 1 -29 31 29 55 42 95 52 34 8 36 -7 2 -22 -35 -16
-51 -55 -37 -87 15 -32 39 -32 75 3 l30 27 -6 -38 c-9 -60 -39 -109 -93 -149
l-49 -38 -5 28 c-3 16 -21 43 -42 61 -30 26 -42 48 -63 118 -18 58 -36 96 -55
115 l-29 28 53 35 c80 54 168 64 226 26z m1058 -1 c24 -11 57 -29 73 -41 l29
-20 -30 -26 c-22 -18 -37 -46 -57 -111 -21 -70 -34 -94 -65 -123 -26 -24 -38
-45 -38 -63 0 -24 -2 -26 -21 -16 -39 21 -102 85 -116 117 -7 18 -13 49 -13
68 l0 37 26 -32 c38 -45 69 -38 69 15 0 33 -5 43 -33 61 -18 12 -28 25 -23 29
15 9 82 -22 113 -52 35 -34 43 -27 17 14 -24 38 -99 77 -134 70 -28 -5 -34 7
-9 17 31 12 80 5 137 -18 69 -29 74 -17 10 24 -33 21 -59 30 -90 30 -47 0 -55
11 -20 28 37 18 127 14 175 -8z m-826 -22 c32 -26 64 -89 36 -72 -8 5 -9 2 -4
-12 4 -10 10 -26 12 -34 5 -14 2 -11 -31 36 -6 9 -31 20 -55 25 -24 6 -50 15
-57 21 -15 12 -18 32 -3 23 6 -3 13 1 16 9 7 19 63 21 86 4z m501 -8 c22 -26
16 -37 -26 -45 -60 -12 -68 -17 -89 -48 l-20 -32 6 28 c5 19 3 26 -4 22 -17
-10 9 47 32 73 27 28 77 29 101 2z m-1218 -51 c-13 -24 -25 -53 -25 -63 0 -15
-3 -17 -12 -8 -14 14 0 48 35 92 31 38 32 30 2 -21z m1813 7 c31 -43 42 -86
22 -86 -5 0 -10 9 -10 21 0 11 -12 40 -26 65 -33 56 -26 56 14 0z m-1096 -46
c10 0 18 -4 18 -10 0 -19 -39 -10 -51 13 -9 18 -9 20 2 10 7 -7 21 -13 31 -13z
m627 -40 c15 -23 15 -23 -8 -11 -17 9 -26 10 -34 2 -15 -15 -37 -14 -37 2 0
13 38 36 54 33 5 -1 16 -13 25 -26z m-1549 -25 c7 -8 10 -22 6 -30 -8 -22 -43
-18 -61 7 -14 21 -14 23 2 30 28 11 40 9 53 -7z m2280 -1 c8 -9 -17 -39 -35
-42 -24 -5 -38 12 -30 38 6 18 12 20 33 15 15 -4 29 -9 32 -11z m-2200 -126
c6 -2 17 -38 23 -79 10 -72 9 -79 -14 -125 -26 -53 -68 -84 -121 -89 -18 -1
-41 -6 -51 -10 -21 -9 -57 20 -57 46 0 10 12 27 27 39 l27 21 12 -33 11 -33 8
44 c10 59 54 106 91 97 23 -6 24 -5 14 15 -7 12 -9 35 -6 51 4 21 0 35 -14 50
-22 24 -26 58 -8 76 9 9 16 2 29 -27 9 -21 22 -40 29 -43z m2130 30 c0 -10 -9
-27 -21 -39 -15 -15 -19 -28 -14 -49 3 -16 1 -38 -5 -50 -10 -19 -9 -20 12
-15 35 9 75 -27 92 -83 13 -45 14 -46 21 -20 7 27 8 27 36 12 33 -17 38 -47
12 -76 -18 -20 -48 -24 -58 -8 -3 6 -21 10 -38 10 -71 0 -137 77 -137 160 1
53 19 123 39 145 10 11 22 31 26 44 7 24 8 24 21 6 8 -10 14 -27 14 -37z
m-2232 -5 c21 -31 37 -73 27 -73 -17 0 -85 66 -85 82 0 28 36 22 58 -9z m2322
9 c0 -19 -77 -89 -86 -79 -6 5 21 62 38 85 16 19 48 15 48 -6z m-1515 -32 c13
-40 -42 -90 -143 -129 -85 -34 -83 -25 10 34 58 37 91 66 100 85 15 35 24 38
33 10z m751 -51 c10 -9 48 -33 83 -54 76 -46 66 -58 -16 -20 -103 47 -157 101
-132 131 10 12 14 10 29 -13 9 -16 26 -35 36 -44z m-1601 29 c24 -28 25 -33
11 -47 -14 -14 -19 -12 -51 19 -26 26 -32 37 -24 47 18 21 35 16 64 -19z
m2413 20 c9 -9 4 -20 -24 -49 -32 -33 -39 -36 -51 -23 -15 15 -12 26 20 62 23
25 37 28 55 10z m-2458 -70 c0 -4 -11 -11 -26 -14 -18 -5 -32 0 -50 17 l-25
24 22 18 c22 17 23 17 51 -10 15 -14 28 -30 28 -35z m2527 37 c7 -21 -25 -55
-52 -55 -33 0 -36 10 -14 41 22 31 56 38 66 14z m-2432 -55 c0 -8 -8 -16 -17
-18 -13 -2 -18 3 -18 18 0 15 5 20 18 18 9 -2 17 -10 17 -18z m2283 -3 c2 -10
-3 -17 -12 -17 -18 0 -29 16 -21 31 9 14 29 6 33 -14z m-1476 -37 c-2 -22 -8
-40 -13 -40 -10 0 -12 63 -2 73 14 15 18 5 15 -33z m688 4 c0 -13 -4 -24 -10
-24 -5 0 -10 14 -10 31 0 17 4 28 10 24 6 -3 10 -17 10 -31z m-1573 10 c6 -17
-142 -72 -156 -59 -2 3 6 17 20 31 16 17 30 23 45 20 11 -3 29 1 40 9 21 16
45 16 51 -1z m2452 2 c15 -8 37 -13 47 -10 19 5 73 -40 62 -51 -6 -6 -125 30
-147 44 -7 5 -10 14 -7 20 9 14 11 14 45 -3z m-1603 -31 c8 -30 -2 -59 -17
-50 -6 4 -8 14 -4 23 3 8 0 19 -6 23 -6 4 -8 12 -5 18 12 18 25 12 32 -14z
m770 13 c4 -6 3 -13 -3 -15 -6 -2 -8 -13 -5 -25 3 -15 1 -19 -9 -16 -8 3 -14
10 -13 16 1 7 2 21 3 32 1 22 16 26 27 8z m-616 -79 c0 -9 -97 -50 -134 -56
-17 -2 -42 0 -55 5 l-24 9 34 21 c19 11 52 39 74 62 l40 41 32 -38 c18 -21 32
-41 33 -44z m623 -21 c41 -28 34 -38 -23 -38 -33 0 -137 36 -146 51 -3 6 6 28
21 51 l27 40 41 -39 c23 -22 59 -52 80 -65z m905 31 c15 0 36 -5 47 -10 14 -6
2 -8 -42 -6 -47 2 -73 10 -109 33 -72 44 -64 58 11 19 37 -19 79 -35 93 -36z
m-2509 44 c-24 -29 -111 -63 -161 -63 -27 0 -48 5 -48 10 0 6 19 10 43 10 26
0 65 11 102 29 70 34 83 37 64 14z m784 -30 c3 -16 2 -29 -2 -31 -23 -8 -43
-30 -37 -40 4 -6 25 -17 46 -23 28 -9 40 -18 40 -31 0 -10 4 -26 9 -36 11 -20
23 -53 26 -67 0 -5 4 -18 8 -27 18 -46 21 -54 22 -68 1 -8 7 -33 14 -55 16
-60 14 -72 -15 -78 -82 -15 -155 47 -198 171 -42 122 -59 124 -31 4 18 -77 38
-117 79 -160 43 -47 77 -62 135 -62 50 0 74 -13 45 -24 -29 -11 -89 -6 -129
13 l-40 18 -37 -76 c-21 -42 -38 -81 -38 -88 0 -7 -5 -13 -11 -13 -18 0 -2 61
31 121 35 64 37 80 10 104 -10 9 -27 38 -36 64 -27 73 -34 71 -34 -10 0 -70
-2 -77 -24 -87 -23 -10 -23 -10 -29 69 -6 88 -22 123 -65 142 -15 6 -37 21
-49 32 -19 19 -21 26 -13 56 27 96 101 161 221 193 82 22 96 20 102 -11z
m-565 -91 c-9 -15 -45 -43 -79 -62 -56 -30 -72 -34 -138 -35 -59 0 -76 3 -78
15 -3 12 9 15 64 15 80 0 170 38 205 86 28 38 50 22 26 -19z m2038 -44 c35
-16 69 -22 117 -23 54 0 67 -3 65 -15 -8 -37 -119 -27 -216 21 -65 32 -99 68
-88 95 5 12 13 8 40 -20 18 -20 55 -46 82 -58z m-1266 58 c0 -8 -5 -18 -11
-22 -14 -8 -33 11 -25 25 10 16 36 13 36 -3z m-3 -108 c53 -104 65 -142 78
-233 9 -68 33 -122 63 -145 33 -27 101 -27 135 0 34 27 56 26 31 -1 -58 -65
-139 -63 -201 3 -29 31 -40 63 -63 178 -11 58 -31 123 -50 161 -38 74 -62 139
-52 139 4 0 31 -46 59 -102z m487 80 c-17 -57 -76 -160 -85 -151 -7 7 4 38 33
92 41 77 67 106 52 59z m-526 -110 c24 -70 51 -174 62 -243 26 -154 42 -203
87 -254 47 -56 32 -68 -17 -13 -48 53 -65 102 -95 272 -13 74 -40 182 -60 239
-37 111 -39 121 -27 121 4 0 26 -55 50 -122z m541 35 c-12 -38 -26 -74 -32
-81 -22 -28 -17 1 14 84 38 100 52 98 18 -3z m56 35 c-4 -24 -11 -47 -16 -52
-5 -6 -9 -18 -9 -27 0 -18 -17 -35 -26 -27 -3 4 15 66 41 136 10 28 16 9 10
-30z m656 -43 c24 -13 63 -27 87 -31 23 -3 45 -11 49 -17 6 -11 -99 -4 -147 9
-49 13 -6 -13 58 -36 55 -20 62 -25 56 -44 -17 -55 -122 -236 -137 -236 -5 0
-6 7 -3 16 18 47 17 66 -9 119 -16 35 -38 63 -55 73 -42 24 -43 45 -5 82 19
18 39 46 46 61 6 16 13 29 14 29 2 0 23 -11 46 -25z m-1935 -55 l42 -55 -24
-20 c-31 -26 -43 -62 -51 -151 -3 -41 -10 -74 -14 -74 -16 0 -88 101 -119 165
-34 71 -38 115 -12 137 27 25 95 56 116 55 11 -1 39 -27 62 -57z m200 -45 c19
-46 18 -72 -3 -84 -10 -6 -13 -11 -7 -11 21 0 26 -34 7 -48 -17 -12 -17 -14 0
-23 24 -14 24 -94 0 -103 -33 -13 -41 14 -44 149 -2 72 0 136 5 143 13 21 26
13 42 -23z m-78 -7 c15 -15 16 -98 2 -98 -6 0 -5 -8 2 -21 11 -17 10 -22 -6
-35 -17 -12 -17 -14 -3 -14 11 0 18 -12 23 -37 8 -42 -4 -67 -35 -71 -21 -3
-21 -1 -21 136 0 152 5 173 38 140z m1578 -13 c6 -2 29 0 50 5 41 10 57 5 34
-10 -25 -16 -126 -12 -141 6 -11 13 -9 14 17 9 16 -4 34 -8 40 -10z m-1426
-21 c13 -34 13 -74 -1 -74 -6 0 -3 -7 5 -16 20 -20 20 -31 0 -42 -14 -8 -14
-10 0 -21 18 -15 22 -86 6 -96 -5 -3 -18 3 -30 15 -18 18 -20 33 -20 140 0
101 2 120 15 120 9 0 20 -12 25 -26z m1514 -15 c-10 -4 -55 -8 -98 -8 -105 -1
-89 17 19 21 86 3 110 -1 79 -13z m-1726 -47 c2 -26 -1 -42 -8 -42 -7 0 -8 -6
-1 -18 7 -13 7 -22 0 -29 -8 -8 -7 -18 1 -33 9 -17 9 -29 1 -47 -6 -13 -11
-27 -11 -30 0 -3 42 -3 93 1 108 7 151 -1 155 -32 3 -20 1 -21 -61 -15 -69 6
-126 -7 -149 -34 -11 -15 -11 -16 5 -10 10 4 37 9 60 12 l42 6 -36 -20 c-19
-11 -42 -28 -50 -37 -15 -19 -17 -19 35 2 15 6 17 4 11 -14 -3 -12 -3 -32 1
-44 6 -19 9 -17 28 23 23 48 80 93 108 85 12 -3 18 2 18 13 0 10 3 21 7 25 4
4 8 23 9 42 1 39 37 84 66 84 22 0 23 -12 1 -53 -9 -18 -19 -65 -23 -105 -12
-116 -77 -191 -154 -177 -25 5 -35 3 -39 -9 -10 -25 -61 -20 -97 10 -37 32
-65 84 -74 139 -9 59 10 323 25 341 19 24 34 11 37 -34z m1759 4 c-12 -5 -60
-9 -107 -9 -47 0 -95 4 -107 9 -14 6 22 9 107 9 85 0 121 -3 107 -9z m-951
-76 c3 -14 8 -32 10 -41 6 -24 51 -41 74 -29 23 12 40 -7 19 -21 -62 -39 -150
46 -149 146 0 18 2 18 20 -5 11 -14 23 -36 26 -50z m844 55 c30 0 78 3 105 5
64 6 69 -16 10 -45 -58 -29 -173 -28 -239 2 -42 20 -47 25 -36 38 10 12 23 14
59 8 25 -4 71 -8 101 -8z m-1006 -77 c-3 -4 -12 -8 -20 -8 -17 0 -19 27 -1 33
14 5 28 -13 21 -25z m890 -4 l34 -17 -28 -23 c-45 -38 -67 -28 -55 26 8 35 5
34 49 14z m274 -11 c-4 -21 -36 -29 -51 -14 -9 9 -8 14 3 21 25 16 52 12 48
-7z m-141 -29 c4 -11 -1 -22 -12 -30 -16 -12 -16 -14 -3 -14 14 0 17 -13 17
-86 0 -48 -4 -95 -10 -106 -9 -17 -8 -19 8 -16 16 3 18 15 19 124 0 125 5 147
29 137 20 -7 19 -43 -1 -43 -8 0 -13 -4 -9 -10 3 -5 12 -7 21 -3 16 6 16 5 14
-142 -1 -55 1 -61 19 -61 18 0 20 5 16 36 -15 123 -15 178 1 184 9 3 20 4 25
0 14 -8 11 -34 -6 -40 -23 -9 -18 -26 5 -19 17 5 20 2 20 -24 0 -18 -7 -34
-17 -40 -17 -10 -17 -10 0 -11 14 0 17 -10 17 -62 0 -35 -4 -68 -8 -74 -8 -13
-200 -14 -219 -1 -7 4 -21 3 -32 -3 -25 -13 -27 -13 -44 5 -12 11 -13 23 -6
52 5 21 16 78 24 127 14 83 27 112 47 100 16 -10 8 -44 -9 -45 -14 0 -12 -3 5
-10 19 -7 22 -13 16 -31 -4 -13 -6 -39 -5 -59 1 -20 -3 -48 -8 -63 -16 -40 7
-33 25 9 9 22 14 69 14 129 0 91 4 102 33 105 4 1 10 -6 14 -15z m-1052 -64
c4 -27 11 -52 16 -56 5 -3 9 -14 9 -25 0 -51 95 -158 141 -159 14 0 29 -3 33
-7 11 -12 105 -13 112 -2 3 5 14 7 24 4 12 -4 27 2 39 14 12 12 24 21 29 21
10 0 55 59 71 95 7 17 17 37 21 45 11 22 24 83 21 98 -1 6 7 12 18 12 63 0
141 -67 171 -147 22 -58 27 -164 10 -207 -29 -77 -149 -156 -329 -216 -111
-37 -156 -38 -269 -1 -164 54 -278 124 -313 193 -55 107 -19 273 72 340 22 17
91 46 111 48 3 0 9 -22 13 -50z m210 -40 c15 0 14 -4 -9 -25 -14 -13 -26 -29
-26 -35 0 -24 -20 3 -38 53 -38 102 -38 103 10 53 25 -25 53 -46 63 -46z m205
73 c0 -24 -45 -119 -61 -129 -8 -4 -15 -2 -17 5 -2 7 -18 21 -34 31 l-30 18
30 7 c18 3 45 23 64 45 37 43 48 48 48 23z m35 -20 c-10 -56 -49 -126 -90
-161 -55 -49 -62 -38 -11 18 38 43 86 138 86 170 0 6 5 10 11 10 8 0 9 -12 4
-37z m-391 -39 c8 -22 8 -24 -8 -24 -18 0 -29 16 -21 30 9 15 22 12 29 -6z
m16 -54 c0 -11 -7 -20 -15 -20 -15 0 -21 21 -8 33 12 13 23 7 23 -13z m228 -7
c21 -29 13 -38 -12 -14 -29 27 -69 25 -74 -4 -2 -18 -2 -18 8 -2 26 41 83 0
60 -43 -22 -41 -90 -15 -90 35 0 50 76 69 108 28z m-203 -43 c0 -22 -29 -18
-33 3 -3 14 1 18 15 15 10 -2 18 -10 18 -18z m31 -31 c10 -17 -13 -36 -27 -22
-12 12 -4 33 11 33 5 0 12 -5 16 -11z m49 -39 c0 -8 -8 -16 -17 -18 -13 -2
-18 3 -18 18 0 15 5 20 18 18 9 -2 17 -10 17 -18z m185 -5 c0 -8 -9 -15 -20
-15 -20 0 -26 11 -13 23 12 13 33 7 33 -8z m-132 -18 c2 -10 -3 -17 -12 -17
-10 0 -16 9 -16 21 0 24 23 21 28 -4z m68 -6 c-10 -16 -36 -13 -36 3 0 17 21
27 34 16 4 -5 5 -13 2 -19z m747 -68 c58 -7 62 -23 5 -22 -56 1 -90 11 -96 28
-4 11 1 12 19 7 13 -3 45 -9 72 -13z m-1580 -25 c35 -10 79 -4 130 17 27 11
20 -11 -10 -30 -34 -23 -118 -23 -161 -1 -33 17 -46 44 -14 31 9 -4 34 -12 55
-17z m8 -138 c65 -12 110 -30 104 -40 -3 -4 -24 -11 -49 -14 -24 -4 -52 -13
-62 -21 -17 -13 -14 -14 32 -15 102 0 184 -48 184 -107 0 -55 -92 -112 -180
-113 -30 -1 -32 -2 -16 -12 12 -7 47 -9 94 -5 87 7 84 -4 -9 -27 -89 -22 -193
-21 -245 3 -92 42 -164 134 -164 209 0 85 77 132 246 151 6 0 36 -4 65 -9z
m1722 -5 c128 -27 177 -80 157 -171 -15 -65 -32 -94 -85 -143 l-47 -44 -92 6
c-59 4 -126 16 -191 36 -113 34 -159 40 -110 14 17 -9 49 -33 72 -54 63 -58
118 -82 188 -83 62 -1 125 18 125 38 0 6 13 17 29 24 79 35 149 148 153 247 1
48 12 51 23 8 3 -16 15 -37 26 -49 19 -20 19 -21 -1 -39 -11 -10 -38 -55 -60
-100 -34 -71 -47 -88 -93 -118 -117 -78 -328 -144 -425 -134 -69 7 -139 26
-152 42 -9 11 -6 17 12 29 22 14 31 14 99 0 52 -11 104 -14 179 -11 127 6 155
12 192 38 43 31 34 38 -24 18 -110 -38 -385 -17 -489 37 -46 23 -47 9 -3 -37
l39 -41 -35 7 c-78 15 -112 30 -145 62 -28 27 -35 42 -35 73 0 49 13 82 41
109 31 29 39 26 27 -7 -7 -17 -8 -44 -3 -68 l8 -39 11 55 c15 70 37 111 77
144 17 15 33 26 34 24 2 -2 -3 -28 -11 -58 -24 -93 -11 -98 25 -10 19 46 45
95 58 108 27 27 45 22 20 -6 -27 -29 -47 -89 -46 -134 l1 -43 13 46 c17 63 41
93 100 126 45 25 59 28 145 28 77 0 104 -5 144 -23 57 -26 70 -23 29 6 -41 29
-108 45 -190 44 -40 0 -73 2 -73 4 0 7 61 35 97 43 57 13 110 12 186 -4z
m-2043 -39 c0 -2 -7 -21 -16 -42 -18 -44 -13 -97 15 -153 22 -42 107 -125 139
-135 27 -9 28 -21 5 -31 -15 -6 -13 -9 12 -20 122 -53 348 1 462 111 35 33 43
47 43 77 0 41 14 50 24 15 29 -110 -46 -203 -189 -233 -100 -21 -247 -19 -315
5 -61 21 -73 19 -44 -9 35 -32 94 -45 221 -46 78 -1 127 -6 136 -14 8 -6 34
-15 58 -19 23 -4 44 -13 46 -19 17 -51 -277 -5 -435 68 -120 55 -159 90 -198
174 -18 39 -42 79 -53 89 -22 20 -28 46 -12 46 5 0 15 17 21 38 14 41 56 102
71 102 5 0 9 -2 9 -4z m644 -129 c13 -54 -24 -117 -96 -163 -59 -38 -65 -28
-10 15 53 42 98 118 89 151 -3 11 -2 20 3 20 4 0 10 -11 14 -23z m469 -64
c-22 -4 -73 -56 -73 -74 0 -5 -7 -9 -15 -9 -22 0 -18 34 8 57 27 25 44 32 77
31 23 -1 23 -1 3 -5z m103 -15 c15 -7 19 -16 16 -39 l-4 -30 -34 38 c-18 21
-33 41 -34 45 0 8 22 2 56 -14z m117 -40 c-8 -24 -12 -57 -9 -78 l6 -35 -16
29 c-17 31 -14 87 7 112 21 26 27 14 12 -28z m-553 -27 c-1 -37 -33 -102 -66
-133 -40 -37 -75 -48 -152 -48 l-67 1 45 22 c60 29 175 112 195 139 8 13 15
36 15 53 1 29 1 29 15 11 8 -11 15 -31 15 -45z m332 32 c10 -25 12 -26 16 -8
2 11 9 25 14 30 12 11 5 -147 -7 -177 -13 -34 -23 -18 -29 50 -4 37 -10 82
-13 100 -6 39 3 42 19 5z m173 -25 c0 -29 4 -64 9 -77 5 -16 5 -21 -2 -17 -18
11 -34 76 -28 112 10 51 21 41 21 -18z m-95 -56 c0 -116 -41 -250 -74 -239 -6
2 -20 19 -30 37 -16 28 -21 56 -23 154 l-2 121 14 -95 c14 -103 29 -150 45
-150 20 0 42 77 47 163 3 48 10 87 14 87 5 0 9 -35 9 -78z m-350 7 c0 -46 -33
-109 -80 -154 -25 -24 -41 -29 -91 -33 -66 -5 -77 11 -16 22 66 12 157 116
157 179 0 13 3 27 6 30 14 13 24 -6 24 -44z m50 -6 c0 -32 -27 -100 -36 -91
-2 3 1 19 7 37 6 18 9 50 6 72 -4 34 -3 38 9 28 8 -6 14 -27 14 -46z m40 11
c0 -28 -28 -100 -35 -92 -3 3 -1 17 5 32 5 15 10 43 10 62 0 21 4 33 10 29 6
-3 10 -17 10 -31z m40 -65 c8 -15 8 -29 1 -51 -6 -17 -11 -62 -11 -99 0 -56
-4 -73 -20 -89 -25 -25 -56 -26 -69 -2 -10 16 -12 16 -23 0 -7 -9 -21 -30 -30
-47 -15 -28 -22 -31 -63 -31 -25 0 -45 5 -45 10 0 6 15 24 34 40 18 17 36 39
39 50 3 11 4 20 3 20 -1 0 -26 -22 -55 -50 -29 -27 -59 -50 -67 -50 -18 0 -30
23 -15 28 19 6 81 63 81 73 0 5 -25 -9 -55 -31 -52 -38 -85 -50 -85 -31 0 5
16 19 36 31 47 30 36 37 -15 10 -45 -23 -77 -17 -45 8 18 14 18 14 -3 9 -13
-3 -26 -1 -29 4 -3 5 25 9 63 9 83 0 138 14 180 46 20 15 45 24 70 24 33 1 36
2 22 13 -15 11 -13 16 22 45 21 18 42 44 45 58 8 29 20 31 34 3z"/>
<path d="M1493 2897 c-44 -19 -41 -75 3 -96 37 -16 74 8 74 48 0 43 -38 66
-77 48z m55 -44 c4 -29 -36 -43 -54 -18 -19 25 -6 47 25 43 18 -2 27 -10 29
-25z"/>
<path d="M1505 2486 c-4 -48 -4 -90 -1 -93 3 -3 12 -3 21 1 14 5 15 17 9 78
-10 107 -20 112 -29 14z"/>
<path d="M1455 2475 c-7 -78 -3 -95 21 -95 16 0 19 16 4 25 -5 3 -7 32 -3 69
3 38 2 66 -5 69 -6 4 -12 -21 -17 -68z"/>
<path d="M1564 2536 c-4 -10 -4 -41 -1 -71 3 -32 1 -57 -6 -64 -14 -14 -2 -25
18 -17 14 5 16 17 10 84 -8 84 -11 94 -21 68z"/>
<path d="M1492 2348 c7 -20 48 -23 48 -4 0 11 -9 16 -26 16 -16 0 -24 -5 -22
-12z"/>
<path d="M1510 2299 c0 -12 -3 -19 -6 -16 -10 10 -46 -63 -40 -79 9 -24 27
-16 20 10 -3 13 -1 27 5 30 7 5 10 -1 8 -16 -2 -24 27 -38 45 -20 14 14 -10
55 -28 48 -17 -6 -19 10 -3 20 17 10 50 -37 46 -63 -5 -26 10 -31 20 -7 6 17
-27 85 -39 78 -4 -3 -8 2 -8 10 0 8 -4 18 -10 21 -6 3 -10 -4 -10 -16z"/>
<path d="M1467 2167 c-25 -11 -19 -12 53 -12 72 0 78 1 53 12 -15 7 -39 12
-53 12 -14 0 -38 -5 -53 -12z"/>
<path d="M1455 2130 c-13 -6 9 -9 65 -9 56 0 78 3 65 9 -11 5 -40 9 -65 9 -25
0 -54 -4 -65 -9z"/>
<path d="M1465 2093 c-53 -13 -32 -23 48 -23 87 0 115 12 56 24 -35 7 -73 6
-104 -1z"/>
<path d="M1458 2043 c-59 -9 -24 -23 57 -23 88 0 113 13 48 24 -39 6 -59 6
-105 -1z"/>
<path d="M1436 1981 c-12 -18 99 -29 152 -14 18 4 20 8 10 14 -17 12 -155 11
-162 0z"/>
<path d="M1436 1931 c-8 -13 39 -31 55 -20 12 8 12 10 -1 19 -19 12 -47 13
-54 1z"/>
<path d="M1550 1930 c-11 -7 -12 -12 -4 -20 13 -13 67 7 58 21 -7 12 -35 11
-54 -1z"/>
<path d="M1511 1859 c1 -35 5 -77 9 -94 4 -16 5 11 2 60 -6 105 -13 127 -11
34z"/>
<path d="M1430 1882 c0 -5 11 -15 25 -22 19 -10 28 -11 37 -2 6 6 10 13 7 16
-10 9 -69 17 -69 8z"/>
<path d="M1558 1883 c-22 -6 -24 -33 -2 -33 21 0 54 18 54 30 0 10 -21 11 -52
3z"/>
<path d="M1448 1811 c13 -11 30 -17 38 -14 25 9 9 28 -27 31 l-34 2 23 -19z"/>
<path d="M1558 1823 c-20 -5 -23 -19 -7 -29 12 -7 59 15 59 28 0 8 -22 9 -52
1z"/>
<path d="M1440 1770 c0 -12 24 -30 42 -30 30 0 20 27 -12 32 -16 3 -30 2 -30
-2z"/>
<path d="M1563 1773 c-18 -6 -16 -33 1 -33 8 0 24 9 37 20 l24 19 -25 0 c-14
0 -31 -3 -37 -6z"/>
<path d="M1557 1723 c-25 -24 18 -32 49 -8 18 14 17 14 -12 15 -17 0 -34 -3
-37 -7z"/>
<path d="M1460 1695 c7 -8 23 -15 36 -15 15 0 24 6 24 15 0 11 -11 15 -36 15
-31 0 -35 -2 -24 -15z"/>
<path d="M1582 1679 c-13 -5 -20 -13 -17 -19 10 -16 30 -12 50 10 20 22 8 26
-33 9z"/>
<path d="M1492 1653 c-29 -6 -19 -23 14 -23 15 0 24 6 24 15 0 8 -3 14 -7 14
-5 -1 -18 -4 -31 -6z"/>
<path d="M1608 1643 c-16 -4 -26 -33 -12 -33 13 0 44 21 44 30 0 10 -3 11 -32
3z"/>
<path d="M1630 1564 c-19 -19 -29 -34 -23 -34 7 0 16 7 20 14 6 12 17 13 48 6
46 -10 53 -7 31 15 -9 9 -16 12 -16 6 0 -6 -10 -11 -22 -11 -21 0 -21 1 -3 13
10 8 14 16 9 20 -5 3 -25 -10 -44 -29z"/>
<path d="M1240 2370 c-13 -9 -13 -10 0 -11 8 -1 23 0 33 1 10 1 29 -6 43 -14
28 -19 32 -7 6 17 -21 19 -59 22 -82 7z"/>
<path d="M1712 2357 c-27 -29 -29 -47 -3 -23 11 10 38 20 61 23 28 4 37 9 28
14 -24 16 -64 9 -86 -14z"/>
<path d="M1175 1519 c-4 -6 -13 -8 -21 -5 -8 3 -14 1 -14 -4 0 -14 50 -24 62
-12 11 11 3 32 -12 32 -5 0 -12 -5 -15 -11z"/>
<path d="M1507 922 c-5 -25 -15 -36 -39 -46 l-33 -14 45 -7 c25 -3 63 -2 85 3
l40 9 -34 9 c-27 8 -37 18 -46 44 l-12 34 -6 -32z"/>
<path d="M272 1218 c-15 -15 -15 -63 -1 -91 7 -12 34 -46 62 -75 47 -50 49
-56 44 -95 l-6 -42 20 24 c33 41 24 65 -59 155 -50 55 -54 62 -49 98 6 43 6
43 -11 26z"/>
<path d="M2748 1187 c3 -29 -4 -42 -57 -100 -52 -58 -61 -73 -61 -105 0 -36
14 -62 32 -62 5 0 4 9 -2 21 -18 32 -4 64 50 124 51 56 64 85 58 126 -5 37
-25 33 -20 -4z"/>
</g>
</svg>
